<mxfile host="app.diagrams.net" modified="2020-12-03T08:24:52.123Z" agent="5.0 (Windows NT 10.0; Win64; x64) AppleWebKit/537.36 (KHTML, like Gecko) Chrome/87.0.4280.66 Safari/537.36" etag="y2ABV2uHQrqUQFLWoto8" version="13.10.2" type="github">
  <diagram id="dDjfRsEN1ug2k62WeG1b" name="Page-1">
    <mxGraphModel dx="987" dy="552" grid="1" gridSize="10" guides="1" tooltips="1" connect="1" arrows="1" fold="1" page="1" pageScale="1" pageWidth="1169" pageHeight="827" math="0" shadow="0">
      <root>
        <mxCell id="0" />
        <mxCell id="1" parent="0" />
        <mxCell id="BuTPipLV7j_fsyDMpBB1-113" value="" style="rounded=0;whiteSpace=wrap;html=1;fillColor=none;fontSize=14;align=right;" parent="1" vertex="1">
          <mxGeometry x="15" y="800" width="1140" height="259" as="geometry" />
        </mxCell>
        <mxCell id="BuTPipLV7j_fsyDMpBB1-37" value="" style="rounded=0;whiteSpace=wrap;html=1;fillColor=none;fontSize=14;align=right;" parent="1" vertex="1">
          <mxGeometry x="14" y="1099.5" width="846" height="120" as="geometry" />
        </mxCell>
        <mxCell id="BuTPipLV7j_fsyDMpBB1-118" style="edgeStyle=orthogonalEdgeStyle;rounded=0;orthogonalLoop=1;jettySize=auto;html=1;exitX=1;exitY=0.5;exitDx=0;exitDy=0;" parent="1" source="BuTPipLV7j_fsyDMpBB1-70" target="BuTPipLV7j_fsyDMpBB1-81" edge="1">
          <mxGeometry relative="1" as="geometry" />
        </mxCell>
        <mxCell id="BuTPipLV7j_fsyDMpBB1-70" value="" style="rounded=0;whiteSpace=wrap;html=1;fillColor=none;" parent="1" vertex="1">
          <mxGeometry x="739" y="953.6300000000001" width="130" height="83" as="geometry" />
        </mxCell>
        <mxCell id="sfmJpsZofoT2jx0BlZdd-1" value="" style="rounded=0;whiteSpace=wrap;html=1;fillColor=none;fontSize=14;align=right;" parent="1" vertex="1">
          <mxGeometry x="14" y="50" width="746" height="730" as="geometry" />
        </mxCell>
        <mxCell id="sfmJpsZofoT2jx0BlZdd-71" value="" style="rounded=0;whiteSpace=wrap;html=1;dashed=1;" parent="1" vertex="1">
          <mxGeometry x="67.65" y="540" width="262.35" height="130" as="geometry" />
        </mxCell>
        <mxCell id="sfmJpsZofoT2jx0BlZdd-2" value="&lt;b&gt;&lt;font style=&quot;font-size: 16px&quot;&gt;Workflow of Insertion and Extraction Test Automation System without communication and feedback&lt;/font&gt;&lt;/b&gt;" style="text;html=1;strokeColor=none;fillColor=none;align=left;verticalAlign=middle;whiteSpace=wrap;rounded=0;fontSize=14;" parent="1" vertex="1">
          <mxGeometry x="20" y="10" width="840" height="30" as="geometry" />
        </mxCell>
        <mxCell id="sfmJpsZofoT2jx0BlZdd-3" style="edgeStyle=orthogonalEdgeStyle;rounded=0;orthogonalLoop=1;jettySize=auto;html=1;exitX=1;exitY=0.5;exitDx=0;exitDy=0;entryX=0.5;entryY=0;entryDx=0;entryDy=0;fontSize=14;" parent="1" source="sfmJpsZofoT2jx0BlZdd-5" target="sfmJpsZofoT2jx0BlZdd-12" edge="1">
          <mxGeometry relative="1" as="geometry" />
        </mxCell>
        <mxCell id="sfmJpsZofoT2jx0BlZdd-4" style="edgeStyle=orthogonalEdgeStyle;rounded=0;orthogonalLoop=1;jettySize=auto;html=1;exitX=0;exitY=0.5;exitDx=0;exitDy=0;entryX=0.5;entryY=0;entryDx=0;entryDy=0;fontSize=14;" parent="1" source="sfmJpsZofoT2jx0BlZdd-5" target="sfmJpsZofoT2jx0BlZdd-10" edge="1">
          <mxGeometry relative="1" as="geometry" />
        </mxCell>
        <mxCell id="sfmJpsZofoT2jx0BlZdd-5" value="Test id is odd?" style="rhombus;whiteSpace=wrap;html=1;shadow=0;fontFamily=Helvetica;fontSize=12;align=center;strokeWidth=1;spacing=6;spacingTop=-4;" parent="1" vertex="1">
          <mxGeometry x="140" y="220" width="115" height="50" as="geometry" />
        </mxCell>
        <mxCell id="sfmJpsZofoT2jx0BlZdd-6" value="" style="endArrow=none;html=1;" parent="1" edge="1">
          <mxGeometry width="50" height="50" relative="1" as="geometry">
            <mxPoint x="820" y="40" as="sourcePoint" />
            <mxPoint x="10" y="40" as="targetPoint" />
          </mxGeometry>
        </mxCell>
        <mxCell id="sfmJpsZofoT2jx0BlZdd-7" style="edgeStyle=orthogonalEdgeStyle;rounded=0;orthogonalLoop=1;jettySize=auto;html=1;exitX=0.5;exitY=1;exitDx=0;exitDy=0;entryX=0.5;entryY=0;entryDx=0;entryDy=0;fontSize=14;" parent="1" source="sfmJpsZofoT2jx0BlZdd-8" target="sfmJpsZofoT2jx0BlZdd-40" edge="1">
          <mxGeometry relative="1" as="geometry" />
        </mxCell>
        <mxCell id="sfmJpsZofoT2jx0BlZdd-8" value="Initialize parameters" style="rounded=1;whiteSpace=wrap;html=1;fontSize=14;align=center;" parent="1" vertex="1">
          <mxGeometry x="140" y="130" width="115" height="40" as="geometry" />
        </mxCell>
        <mxCell id="sfmJpsZofoT2jx0BlZdd-9" style="edgeStyle=orthogonalEdgeStyle;rounded=0;orthogonalLoop=1;jettySize=auto;html=1;exitX=0.5;exitY=1;exitDx=0;exitDy=0;entryX=0;entryY=0.5;entryDx=0;entryDy=0;fontSize=14;" parent="1" source="sfmJpsZofoT2jx0BlZdd-10" target="sfmJpsZofoT2jx0BlZdd-14" edge="1">
          <mxGeometry relative="1" as="geometry" />
        </mxCell>
        <mxCell id="sfmJpsZofoT2jx0BlZdd-10" value="Take Voyager #2" style="rounded=1;whiteSpace=wrap;html=1;fontSize=14;align=center;" parent="1" vertex="1">
          <mxGeometry x="45" y="280" width="115" height="40" as="geometry" />
        </mxCell>
        <mxCell id="sfmJpsZofoT2jx0BlZdd-11" style="edgeStyle=orthogonalEdgeStyle;rounded=0;orthogonalLoop=1;jettySize=auto;html=1;exitX=0.5;exitY=1;exitDx=0;exitDy=0;entryX=1;entryY=0.5;entryDx=0;entryDy=0;fontSize=14;" parent="1" source="sfmJpsZofoT2jx0BlZdd-12" target="sfmJpsZofoT2jx0BlZdd-14" edge="1">
          <mxGeometry relative="1" as="geometry" />
        </mxCell>
        <mxCell id="sfmJpsZofoT2jx0BlZdd-12" value="Take Voyager #1" style="rounded=1;whiteSpace=wrap;html=1;fontSize=14;align=center;" parent="1" vertex="1">
          <mxGeometry x="228.13" y="280" width="115" height="40" as="geometry" />
        </mxCell>
        <mxCell id="sfmJpsZofoT2jx0BlZdd-13" style="edgeStyle=orthogonalEdgeStyle;rounded=0;orthogonalLoop=1;jettySize=auto;html=1;exitX=0.5;exitY=1;exitDx=0;exitDy=0;entryX=0.5;entryY=0;entryDx=0;entryDy=0;fontSize=14;" parent="1" source="sfmJpsZofoT2jx0BlZdd-14" target="sfmJpsZofoT2jx0BlZdd-16" edge="1">
          <mxGeometry relative="1" as="geometry" />
        </mxCell>
        <mxCell id="sfmJpsZofoT2jx0BlZdd-14" value="" style="ellipse;whiteSpace=wrap;html=1;aspect=fixed;fontSize=14;align=left;" parent="1" vertex="1">
          <mxGeometry x="187.5" y="340" width="20" height="20" as="geometry" />
        </mxCell>
        <mxCell id="sfmJpsZofoT2jx0BlZdd-15" style="edgeStyle=orthogonalEdgeStyle;rounded=0;orthogonalLoop=1;jettySize=auto;html=1;exitX=0.5;exitY=1;exitDx=0;exitDy=0;entryX=0.5;entryY=0;entryDx=0;entryDy=0;fontSize=14;" parent="1" source="sfmJpsZofoT2jx0BlZdd-16" target="sfmJpsZofoT2jx0BlZdd-21" edge="1">
          <mxGeometry relative="1" as="geometry" />
        </mxCell>
        <mxCell id="sfmJpsZofoT2jx0BlZdd-16" value="Place Voyager upon Arduino tool platform&amp;nbsp;&amp;nbsp;" style="rounded=1;whiteSpace=wrap;html=1;fontSize=14;align=center;" parent="1" vertex="1">
          <mxGeometry x="126.25" y="390" width="142.5" height="60" as="geometry" />
        </mxCell>
        <mxCell id="sfmJpsZofoT2jx0BlZdd-17" style="edgeStyle=orthogonalEdgeStyle;rounded=0;jumpStyle=none;orthogonalLoop=1;jettySize=auto;html=1;exitX=0.5;exitY=1;exitDx=0;exitDy=0;entryX=0.5;entryY=0;entryDx=0;entryDy=0;fontSize=14;" parent="1" source="sfmJpsZofoT2jx0BlZdd-18" target="sfmJpsZofoT2jx0BlZdd-8" edge="1">
          <mxGeometry relative="1" as="geometry" />
        </mxCell>
        <mxCell id="sfmJpsZofoT2jx0BlZdd-18" value="start" style="ellipse;whiteSpace=wrap;html=1;fontSize=14;align=center;" parent="1" vertex="1">
          <mxGeometry x="151.87" y="80" width="90" height="30" as="geometry" />
        </mxCell>
        <mxCell id="sfmJpsZofoT2jx0BlZdd-19" value="Test id is odd?" style="rhombus;whiteSpace=wrap;html=1;shadow=0;fontFamily=Helvetica;fontSize=12;align=center;strokeWidth=1;spacing=6;spacingTop=-4;" parent="1" vertex="1">
          <mxGeometry x="140" y="220" width="115" height="50" as="geometry" />
        </mxCell>
        <mxCell id="sfmJpsZofoT2jx0BlZdd-20" style="edgeStyle=orthogonalEdgeStyle;rounded=0;orthogonalLoop=1;jettySize=auto;html=1;exitX=0.5;exitY=1;exitDx=0;exitDy=0;entryX=0.5;entryY=0;entryDx=0;entryDy=0;fontSize=14;" parent="1" source="sfmJpsZofoT2jx0BlZdd-21" target="sfmJpsZofoT2jx0BlZdd-25" edge="1">
          <mxGeometry relative="1" as="geometry" />
        </mxCell>
        <mxCell id="sfmJpsZofoT2jx0BlZdd-21" value="Arduino gripper fix Voyager" style="rounded=1;whiteSpace=wrap;html=1;fontSize=14;align=center;" parent="1" vertex="1">
          <mxGeometry x="125" y="480" width="143.75" height="50" as="geometry" />
        </mxCell>
        <mxCell id="sfmJpsZofoT2jx0BlZdd-22" style="edgeStyle=orthogonalEdgeStyle;rounded=0;jumpStyle=none;orthogonalLoop=1;jettySize=auto;html=1;exitX=0.5;exitY=1;exitDx=0;exitDy=0;entryX=0.5;entryY=1;entryDx=0;entryDy=0;fontSize=14;" parent="1" source="sfmJpsZofoT2jx0BlZdd-23" target="sfmJpsZofoT2jx0BlZdd-52" edge="1">
          <mxGeometry relative="1" as="geometry" />
        </mxCell>
        <mxCell id="sfmJpsZofoT2jx0BlZdd-23" value="Take stick from pallet" style="rounded=1;whiteSpace=wrap;html=1;fontSize=14;align=center;" parent="1" vertex="1">
          <mxGeometry x="125" y="680" width="143.75" height="40" as="geometry" />
        </mxCell>
        <mxCell id="sfmJpsZofoT2jx0BlZdd-24" style="edgeStyle=orthogonalEdgeStyle;rounded=0;orthogonalLoop=1;jettySize=auto;html=1;exitX=0;exitY=0.5;exitDx=0;exitDy=0;fontSize=14;entryX=0;entryY=0.5;entryDx=0;entryDy=0;" parent="1" source="sfmJpsZofoT2jx0BlZdd-25" target="sfmJpsZofoT2jx0BlZdd-38" edge="1">
          <mxGeometry relative="1" as="geometry">
            <mxPoint x="116.13" y="660" as="targetPoint" />
          </mxGeometry>
        </mxCell>
        <mxCell id="sfmJpsZofoT2jx0BlZdd-25" value="stick id is last&lt;br&gt;&amp;nbsp;of pallet?" style="rhombus;whiteSpace=wrap;html=1;shadow=0;fontFamily=Helvetica;fontSize=12;align=center;strokeWidth=1;spacing=6;spacingTop=-4;" parent="1" vertex="1">
          <mxGeometry x="136.56" y="550" width="120.62" height="60" as="geometry" />
        </mxCell>
        <mxCell id="sfmJpsZofoT2jx0BlZdd-26" value="&lt;span style=&quot;color: rgb(0 , 0 , 0) ; font-family: &amp;#34;helvetica&amp;#34; ; font-size: 12px ; font-style: normal ; font-weight: 400 ; letter-spacing: normal ; text-align: center ; text-indent: 0px ; text-transform: none ; word-spacing: 0px ; background-color: rgb(248 , 249 , 250) ; display: inline ; float: none&quot;&gt;Test id + +&lt;/span&gt;" style="text;whiteSpace=wrap;html=1;fontSize=14;" parent="1" vertex="1">
          <mxGeometry x="170" y="310" width="65" height="30" as="geometry" />
        </mxCell>
        <mxCell id="sfmJpsZofoT2jx0BlZdd-27" value="" style="strokeWidth=2;html=1;shape=mxgraph.flowchart.annotation_2;align=left;labelPosition=right;pointerEvents=1;fontSize=14;" parent="1" vertex="1">
          <mxGeometry x="258.13" y="125" width="15" height="45" as="geometry" />
        </mxCell>
        <mxCell id="sfmJpsZofoT2jx0BlZdd-28" value="Test id =1;" style="text;html=1;strokeColor=none;fillColor=none;align=center;verticalAlign=middle;whiteSpace=wrap;rounded=0;fontSize=14;" parent="1" vertex="1">
          <mxGeometry x="280" y="125" width="73.13" height="20" as="geometry" />
        </mxCell>
        <mxCell id="sfmJpsZofoT2jx0BlZdd-29" value="End" style="ellipse;whiteSpace=wrap;html=1;fontSize=14;align=center;" parent="1" vertex="1">
          <mxGeometry x="577.5" y="477.5" width="90" height="30" as="geometry" />
        </mxCell>
        <mxCell id="sfmJpsZofoT2jx0BlZdd-30" value="no" style="text;html=1;align=center;verticalAlign=middle;resizable=0;points=[];autosize=1;fontSize=14;" parent="1" vertex="1">
          <mxGeometry x="106.56" y="250" width="30" height="20" as="geometry" />
        </mxCell>
        <mxCell id="sfmJpsZofoT2jx0BlZdd-31" value="yes" style="text;html=1;align=center;verticalAlign=middle;resizable=0;points=[];autosize=1;fontSize=14;" parent="1" vertex="1">
          <mxGeometry x="245.63" y="250" width="40" height="20" as="geometry" />
        </mxCell>
        <mxCell id="sfmJpsZofoT2jx0BlZdd-32" value="no,&amp;nbsp;&lt;br&gt;stick id ++&lt;br&gt;" style="text;html=1;strokeColor=none;fillColor=none;align=left;verticalAlign=middle;whiteSpace=wrap;rounded=0;fontSize=14;" parent="1" vertex="1">
          <mxGeometry x="116.87" y="590" width="70" height="40" as="geometry" />
        </mxCell>
        <mxCell id="sfmJpsZofoT2jx0BlZdd-33" style="edgeStyle=orthogonalEdgeStyle;rounded=0;orthogonalLoop=1;jettySize=auto;html=1;exitX=0.5;exitY=1;exitDx=0;exitDy=0;entryX=0.5;entryY=0;entryDx=0;entryDy=0;fontSize=14;" parent="1" source="sfmJpsZofoT2jx0BlZdd-35" target="sfmJpsZofoT2jx0BlZdd-29" edge="1">
          <mxGeometry relative="1" as="geometry" />
        </mxCell>
        <mxCell id="sfmJpsZofoT2jx0BlZdd-34" style="rounded=0;orthogonalLoop=1;jettySize=auto;html=1;exitX=1;exitY=0.5;exitDx=0;exitDy=0;entryX=1;entryY=0.5;entryDx=0;entryDy=0;fontSize=14;edgeStyle=orthogonalEdgeStyle;elbow=vertical;jumpStyle=none;" parent="1" source="sfmJpsZofoT2jx0BlZdd-35" target="sfmJpsZofoT2jx0BlZdd-40" edge="1">
          <mxGeometry relative="1" as="geometry">
            <Array as="points">
              <mxPoint x="730" y="435" />
              <mxPoint x="730" y="195" />
            </Array>
          </mxGeometry>
        </mxCell>
        <mxCell id="sfmJpsZofoT2jx0BlZdd-35" value="is last loop?" style="rhombus;whiteSpace=wrap;html=1;fontSize=14;align=center;" parent="1" vertex="1">
          <mxGeometry x="570" y="410" width="105" height="50" as="geometry" />
        </mxCell>
        <mxCell id="sfmJpsZofoT2jx0BlZdd-36" value="yes" style="text;html=1;align=center;verticalAlign=middle;resizable=0;points=[];autosize=1;fontSize=14;" parent="1" vertex="1">
          <mxGeometry x="623.13" y="452.5" width="40" height="20" as="geometry" />
        </mxCell>
        <mxCell id="sfmJpsZofoT2jx0BlZdd-37" style="edgeStyle=orthogonalEdgeStyle;rounded=0;orthogonalLoop=1;jettySize=auto;html=1;exitX=0.5;exitY=1;exitDx=0;exitDy=0;entryX=0.5;entryY=0;entryDx=0;entryDy=0;fontSize=14;" parent="1" source="sfmJpsZofoT2jx0BlZdd-38" target="sfmJpsZofoT2jx0BlZdd-23" edge="1">
          <mxGeometry relative="1" as="geometry" />
        </mxCell>
        <mxCell id="sfmJpsZofoT2jx0BlZdd-38" value="" style="ellipse;whiteSpace=wrap;html=1;aspect=fixed;fontSize=14;align=left;" parent="1" vertex="1">
          <mxGeometry x="186.87" y="640" width="20" height="20" as="geometry" />
        </mxCell>
        <mxCell id="sfmJpsZofoT2jx0BlZdd-39" style="edgeStyle=orthogonalEdgeStyle;rounded=0;orthogonalLoop=1;jettySize=auto;html=1;exitX=0.5;exitY=1;exitDx=0;exitDy=0;entryX=0.5;entryY=0;entryDx=0;entryDy=0;fontSize=14;" parent="1" source="sfmJpsZofoT2jx0BlZdd-40" target="sfmJpsZofoT2jx0BlZdd-19" edge="1">
          <mxGeometry relative="1" as="geometry" />
        </mxCell>
        <mxCell id="sfmJpsZofoT2jx0BlZdd-40" value="" style="ellipse;whiteSpace=wrap;html=1;aspect=fixed;fontSize=14;align=left;" parent="1" vertex="1">
          <mxGeometry x="186.87" y="185" width="20" height="20" as="geometry" />
        </mxCell>
        <mxCell id="sfmJpsZofoT2jx0BlZdd-41" value="no" style="text;html=1;align=center;verticalAlign=middle;resizable=0;points=[];autosize=1;fontSize=14;" parent="1" vertex="1">
          <mxGeometry x="675" y="410" width="30" height="20" as="geometry" />
        </mxCell>
        <mxCell id="sfmJpsZofoT2jx0BlZdd-42" value="etc." style="text;html=1;strokeColor=none;fillColor=none;align=center;verticalAlign=middle;whiteSpace=wrap;rounded=0;fontSize=14;" parent="1" vertex="1">
          <mxGeometry x="273.13" y="150" width="70" height="20" as="geometry" />
        </mxCell>
        <mxCell id="sfmJpsZofoT2jx0BlZdd-43" value="&lt;b&gt;&lt;i&gt;Universal Robot UR5e&lt;/i&gt;&lt;/b&gt;" style="text;html=1;strokeColor=none;fillColor=none;align=left;verticalAlign=middle;whiteSpace=wrap;rounded=0;fontSize=14;" parent="1" vertex="1">
          <mxGeometry x="30" y="50" width="190" height="20" as="geometry" />
        </mxCell>
        <mxCell id="BuTPipLV7j_fsyDMpBB1-93" style="edgeStyle=orthogonalEdgeStyle;rounded=0;orthogonalLoop=1;jettySize=auto;html=1;exitX=1;exitY=0.5;exitDx=0;exitDy=0;entryX=0;entryY=0.5;entryDx=0;entryDy=0;" parent="1" source="sfmJpsZofoT2jx0BlZdd-47" edge="1">
          <mxGeometry relative="1" as="geometry">
            <mxPoint x="158" y="1162.5" as="targetPoint" />
          </mxGeometry>
        </mxCell>
        <mxCell id="BuTPipLV7j_fsyDMpBB1-94" style="edgeStyle=orthogonalEdgeStyle;rounded=0;orthogonalLoop=1;jettySize=auto;html=1;exitX=1;exitY=0.5;exitDx=0;exitDy=0;entryX=0.5;entryY=1;entryDx=0;entryDy=0;" parent="1" source="sfmJpsZofoT2jx0BlZdd-47" target="BuTPipLV7j_fsyDMpBB1-25" edge="1">
          <mxGeometry relative="1" as="geometry">
            <Array as="points">
              <mxPoint x="140" y="1162.5" />
              <mxPoint x="140" y="1212.5" />
              <mxPoint x="669" y="1212.5" />
            </Array>
          </mxGeometry>
        </mxCell>
        <mxCell id="sfmJpsZofoT2jx0BlZdd-47" value="start" style="ellipse;whiteSpace=wrap;html=1;fontSize=14;align=center;" parent="1" vertex="1">
          <mxGeometry x="45" y="1147.5" width="85" height="30" as="geometry" />
        </mxCell>
        <mxCell id="sfmJpsZofoT2jx0BlZdd-48" value="end" style="ellipse;whiteSpace=wrap;html=1;fontSize=14;align=center;" parent="1" vertex="1">
          <mxGeometry x="754" y="1144.5" width="90" height="30" as="geometry" />
        </mxCell>
        <mxCell id="BuTPipLV7j_fsyDMpBB1-40" style="edgeStyle=orthogonalEdgeStyle;rounded=0;orthogonalLoop=1;jettySize=auto;html=1;exitX=1;exitY=0.5;exitDx=0;exitDy=0;entryX=0;entryY=0.5;entryDx=0;entryDy=0;" parent="1" source="sfmJpsZofoT2jx0BlZdd-50" target="BuTPipLV7j_fsyDMpBB1-32" edge="1">
          <mxGeometry relative="1" as="geometry" />
        </mxCell>
        <mxCell id="sfmJpsZofoT2jx0BlZdd-50" value="Wait for requests from PC" style="rounded=1;whiteSpace=wrap;html=1;fillColor=#f5f5f5;fontSize=14;align=center;strokeColor=#666666;fontColor=#333333;" parent="1" vertex="1">
          <mxGeometry x="164" y="1137" width="120" height="45" as="geometry" />
        </mxCell>
        <mxCell id="sfmJpsZofoT2jx0BlZdd-51" style="edgeStyle=orthogonalEdgeStyle;rounded=0;jumpStyle=none;orthogonalLoop=1;jettySize=auto;html=1;exitX=0.5;exitY=0;exitDx=0;exitDy=0;entryX=0.5;entryY=1;entryDx=0;entryDy=0;fontSize=14;" parent="1" source="sfmJpsZofoT2jx0BlZdd-52" target="sfmJpsZofoT2jx0BlZdd-54" edge="1">
          <mxGeometry relative="1" as="geometry" />
        </mxCell>
        <mxCell id="sfmJpsZofoT2jx0BlZdd-52" value="&lt;span style=&quot;background-color: rgb(153 , 204 , 255)&quot;&gt;Insertion Force Test&lt;/span&gt;" style="rounded=1;whiteSpace=wrap;html=1;fontSize=14;align=center;" parent="1" vertex="1">
          <mxGeometry x="353.13" y="710" width="140" height="40" as="geometry" />
        </mxCell>
        <mxCell id="sfmJpsZofoT2jx0BlZdd-53" style="edgeStyle=orthogonalEdgeStyle;rounded=0;jumpStyle=none;orthogonalLoop=1;jettySize=auto;html=1;exitX=0.5;exitY=0;exitDx=0;exitDy=0;entryX=0.5;entryY=1;entryDx=0;entryDy=0;fontSize=14;" parent="1" source="sfmJpsZofoT2jx0BlZdd-54" target="sfmJpsZofoT2jx0BlZdd-58" edge="1">
          <mxGeometry relative="1" as="geometry" />
        </mxCell>
        <mxCell id="sfmJpsZofoT2jx0BlZdd-54" value="&lt;div&gt;&lt;span&gt;Place Voyager with stick to PDSP&lt;/span&gt;&lt;/div&gt;" style="rounded=1;whiteSpace=wrap;html=1;fontSize=14;align=center;" parent="1" vertex="1">
          <mxGeometry x="353.13" y="607.5" width="140" height="52.5" as="geometry" />
        </mxCell>
        <mxCell id="sfmJpsZofoT2jx0BlZdd-55" style="edgeStyle=orthogonalEdgeStyle;rounded=0;orthogonalLoop=1;jettySize=auto;html=1;exitX=1;exitY=0.5;exitDx=0;exitDy=0;fontSize=14;entryX=1;entryY=0.5;entryDx=0;entryDy=0;" parent="1" source="sfmJpsZofoT2jx0BlZdd-25" target="sfmJpsZofoT2jx0BlZdd-38" edge="1">
          <mxGeometry relative="1" as="geometry">
            <mxPoint x="257.17999999999984" y="580" as="sourcePoint" />
            <mxPoint x="300" y="610" as="targetPoint" />
          </mxGeometry>
        </mxCell>
        <mxCell id="sfmJpsZofoT2jx0BlZdd-56" value="yes,&amp;nbsp;&lt;br&gt;last loop" style="text;html=1;strokeColor=none;fillColor=none;align=right;verticalAlign=middle;whiteSpace=wrap;rounded=0;fontSize=14;" parent="1" vertex="1">
          <mxGeometry x="207.5" y="590" width="70" height="40" as="geometry" />
        </mxCell>
        <mxCell id="sfmJpsZofoT2jx0BlZdd-57" style="edgeStyle=orthogonalEdgeStyle;rounded=0;jumpStyle=none;orthogonalLoop=1;jettySize=auto;html=1;exitX=0.5;exitY=0;exitDx=0;exitDy=0;fontSize=14;" parent="1" source="sfmJpsZofoT2jx0BlZdd-58" target="sfmJpsZofoT2jx0BlZdd-60" edge="1">
          <mxGeometry relative="1" as="geometry" />
        </mxCell>
        <mxCell id="sfmJpsZofoT2jx0BlZdd-58" value="&lt;span style=&quot;background-color: rgb(153 , 204 , 255)&quot;&gt;PDSP test&lt;/span&gt;" style="rounded=1;whiteSpace=wrap;html=1;fontSize=14;align=center;" parent="1" vertex="1">
          <mxGeometry x="353.13" y="550" width="140" height="35" as="geometry" />
        </mxCell>
        <mxCell id="sfmJpsZofoT2jx0BlZdd-59" style="edgeStyle=orthogonalEdgeStyle;rounded=0;jumpStyle=none;orthogonalLoop=1;jettySize=auto;html=1;exitX=0.5;exitY=0;exitDx=0;exitDy=0;entryX=0.5;entryY=1;entryDx=0;entryDy=0;fontSize=14;" parent="1" source="sfmJpsZofoT2jx0BlZdd-60" target="sfmJpsZofoT2jx0BlZdd-62" edge="1">
          <mxGeometry relative="1" as="geometry" />
        </mxCell>
        <mxCell id="sfmJpsZofoT2jx0BlZdd-60" value="Take Voyager with stick safely using tweezer from PDSP" style="rounded=1;whiteSpace=wrap;html=1;fontSize=14;align=center;" parent="1" vertex="1">
          <mxGeometry x="353.13" y="470" width="140" height="55" as="geometry" />
        </mxCell>
        <mxCell id="sfmJpsZofoT2jx0BlZdd-61" style="edgeStyle=orthogonalEdgeStyle;rounded=0;jumpStyle=none;orthogonalLoop=1;jettySize=auto;html=1;exitX=0.5;exitY=0;exitDx=0;exitDy=0;entryX=0.5;entryY=1;entryDx=0;entryDy=0;fontSize=14;" parent="1" source="sfmJpsZofoT2jx0BlZdd-62" target="sfmJpsZofoT2jx0BlZdd-64" edge="1">
          <mxGeometry relative="1" as="geometry" />
        </mxCell>
        <mxCell id="sfmJpsZofoT2jx0BlZdd-62" value="Place Voyager upon Arduino tool platform&amp;nbsp;&amp;nbsp;" style="rounded=1;whiteSpace=wrap;html=1;fontSize=14;align=center;" parent="1" vertex="1">
          <mxGeometry x="353.13" y="387.5" width="140" height="55" as="geometry" />
        </mxCell>
        <mxCell id="sfmJpsZofoT2jx0BlZdd-63" style="edgeStyle=orthogonalEdgeStyle;rounded=0;jumpStyle=none;orthogonalLoop=1;jettySize=auto;html=1;exitX=0.5;exitY=0;exitDx=0;exitDy=0;entryX=0.5;entryY=1;entryDx=0;entryDy=0;fontSize=14;" parent="1" source="sfmJpsZofoT2jx0BlZdd-64" target="sfmJpsZofoT2jx0BlZdd-66" edge="1">
          <mxGeometry relative="1" as="geometry" />
        </mxCell>
        <mxCell id="sfmJpsZofoT2jx0BlZdd-64" value="Arduino gripper fix Voyager" style="rounded=1;whiteSpace=wrap;html=1;fontSize=14;align=center;" parent="1" vertex="1">
          <mxGeometry x="353.13" y="305" width="140" height="55" as="geometry" />
        </mxCell>
        <mxCell id="sfmJpsZofoT2jx0BlZdd-65" style="edgeStyle=orthogonalEdgeStyle;rounded=0;jumpStyle=none;orthogonalLoop=1;jettySize=auto;html=1;exitX=0.5;exitY=0;exitDx=0;exitDy=0;entryX=0.5;entryY=0;entryDx=0;entryDy=0;fontSize=14;" parent="1" source="sfmJpsZofoT2jx0BlZdd-66" target="sfmJpsZofoT2jx0BlZdd-68" edge="1">
          <mxGeometry relative="1" as="geometry" />
        </mxCell>
        <mxCell id="sfmJpsZofoT2jx0BlZdd-66" value="&lt;span style=&quot;background-color: rgb(153 , 204 , 255)&quot;&gt;Extraction Force Test&lt;/span&gt;" style="rounded=1;whiteSpace=wrap;html=1;fontSize=14;align=center;" parent="1" vertex="1">
          <mxGeometry x="353.13" y="240" width="140" height="40" as="geometry" />
        </mxCell>
        <mxCell id="sfmJpsZofoT2jx0BlZdd-67" style="edgeStyle=orthogonalEdgeStyle;rounded=0;jumpStyle=none;orthogonalLoop=1;jettySize=auto;html=1;exitX=0.5;exitY=1;exitDx=0;exitDy=0;entryX=0.5;entryY=0;entryDx=0;entryDy=0;fontSize=14;" parent="1" source="sfmJpsZofoT2jx0BlZdd-68" target="sfmJpsZofoT2jx0BlZdd-70" edge="1">
          <mxGeometry relative="1" as="geometry" />
        </mxCell>
        <mxCell id="sfmJpsZofoT2jx0BlZdd-68" value="Throw stick to recycle bin" style="rounded=1;whiteSpace=wrap;html=1;fontSize=14;align=center;" parent="1" vertex="1">
          <mxGeometry x="558.75" y="240" width="127.5" height="55" as="geometry" />
        </mxCell>
        <mxCell id="sfmJpsZofoT2jx0BlZdd-69" style="edgeStyle=orthogonalEdgeStyle;rounded=0;jumpStyle=none;orthogonalLoop=1;jettySize=auto;html=1;exitX=0.5;exitY=1;exitDx=0;exitDy=0;entryX=0.5;entryY=0;entryDx=0;entryDy=0;fontSize=14;" parent="1" source="sfmJpsZofoT2jx0BlZdd-70" target="sfmJpsZofoT2jx0BlZdd-35" edge="1">
          <mxGeometry relative="1" as="geometry" />
        </mxCell>
        <mxCell id="sfmJpsZofoT2jx0BlZdd-70" value="UR robot move to start position" style="rounded=1;whiteSpace=wrap;html=1;fontSize=14;align=center;" parent="1" vertex="1">
          <mxGeometry x="558.75" y="322.5" width="127.5" height="55" as="geometry" />
        </mxCell>
        <mxCell id="sfmJpsZofoT2jx0BlZdd-72" value="pallet&amp;nbsp; for 50 sticks" style="text;html=1;strokeColor=none;fillColor=none;align=center;verticalAlign=middle;whiteSpace=wrap;rounded=0;dashed=1;" parent="1" vertex="1">
          <mxGeometry x="68.6" y="543" width="57.65" height="20" as="geometry" />
        </mxCell>
        <mxCell id="BuTPipLV7j_fsyDMpBB1-9" value="&lt;b&gt;&lt;i&gt;Voyager Insertion and Extraction Test Software on PC&lt;/i&gt;&lt;/b&gt;" style="text;html=1;strokeColor=none;fillColor=none;align=left;verticalAlign=middle;whiteSpace=wrap;rounded=0;fontSize=14;" parent="1" vertex="1">
          <mxGeometry x="30" y="803.5" width="490" height="20" as="geometry" />
        </mxCell>
        <mxCell id="BuTPipLV7j_fsyDMpBB1-42" style="edgeStyle=orthogonalEdgeStyle;rounded=0;orthogonalLoop=1;jettySize=auto;html=1;exitX=1;exitY=0.5;exitDx=0;exitDy=0;entryX=0;entryY=0.5;entryDx=0;entryDy=0;" parent="1" source="BuTPipLV7j_fsyDMpBB1-14" target="BuTPipLV7j_fsyDMpBB1-41" edge="1">
          <mxGeometry relative="1" as="geometry" />
        </mxCell>
        <mxCell id="BuTPipLV7j_fsyDMpBB1-14" value="Adjust settings by operator" style="rounded=1;whiteSpace=wrap;html=1;fillColor=none;fontSize=14;align=center;" parent="1" vertex="1">
          <mxGeometry x="157.75" y="957.6199999999999" width="110" height="65" as="geometry" />
        </mxCell>
        <mxCell id="BuTPipLV7j_fsyDMpBB1-90" style="edgeStyle=orthogonalEdgeStyle;rounded=0;orthogonalLoop=1;jettySize=auto;html=1;exitX=0.5;exitY=1;exitDx=0;exitDy=0;entryX=0.5;entryY=1;entryDx=0;entryDy=0;" parent="1" source="BuTPipLV7j_fsyDMpBB1-20" target="sfmJpsZofoT2jx0BlZdd-50" edge="1">
          <mxGeometry relative="1" as="geometry">
            <Array as="points">
              <mxPoint x="504" y="1202.5" />
              <mxPoint x="224" y="1202.5" />
            </Array>
          </mxGeometry>
        </mxCell>
        <mxCell id="BuTPipLV7j_fsyDMpBB1-100" style="edgeStyle=orthogonalEdgeStyle;rounded=0;orthogonalLoop=1;jettySize=auto;html=1;exitX=0.5;exitY=0;exitDx=0;exitDy=0;dashed=1;" parent="1" source="BuTPipLV7j_fsyDMpBB1-20" target="BuTPipLV7j_fsyDMpBB1-99" edge="1">
          <mxGeometry relative="1" as="geometry" />
        </mxCell>
        <mxCell id="BuTPipLV7j_fsyDMpBB1-20" value="Send requested Response to PC" style="rounded=1;whiteSpace=wrap;html=1;fillColor=none;fontSize=14;align=center;" parent="1" vertex="1">
          <mxGeometry x="444" y="1137" width="120" height="45" as="geometry" />
        </mxCell>
        <mxCell id="BuTPipLV7j_fsyDMpBB1-36" style="edgeStyle=orthogonalEdgeStyle;rounded=0;orthogonalLoop=1;jettySize=auto;html=1;exitX=1;exitY=0.5;exitDx=0;exitDy=0;" parent="1" source="BuTPipLV7j_fsyDMpBB1-25" edge="1">
          <mxGeometry relative="1" as="geometry">
            <mxPoint x="754.0001189062214" y="1159.534482758621" as="targetPoint" />
          </mxGeometry>
        </mxCell>
        <mxCell id="BuTPipLV7j_fsyDMpBB1-25" value="Shut down ?" style="rhombus;whiteSpace=wrap;html=1;" parent="1" vertex="1">
          <mxGeometry x="614" y="1137" width="110" height="45" as="geometry" />
        </mxCell>
        <mxCell id="BuTPipLV7j_fsyDMpBB1-34" style="edgeStyle=orthogonalEdgeStyle;rounded=0;orthogonalLoop=1;jettySize=auto;html=1;exitX=1;exitY=0.5;exitDx=0;exitDy=0;entryX=0;entryY=0.5;entryDx=0;entryDy=0;" parent="1" source="BuTPipLV7j_fsyDMpBB1-32" target="BuTPipLV7j_fsyDMpBB1-20" edge="1">
          <mxGeometry relative="1" as="geometry" />
        </mxCell>
        <mxCell id="BuTPipLV7j_fsyDMpBB1-32" value="Resolve Response" style="rounded=1;whiteSpace=wrap;html=1;fillColor=none;fontSize=14;align=center;" parent="1" vertex="1">
          <mxGeometry x="312.13" y="1137" width="100" height="45" as="geometry" />
        </mxCell>
        <mxCell id="BuTPipLV7j_fsyDMpBB1-48" style="edgeStyle=orthogonalEdgeStyle;rounded=0;orthogonalLoop=1;jettySize=auto;html=1;exitX=1;exitY=0.5;exitDx=0;exitDy=0;entryX=0;entryY=0.5;entryDx=0;entryDy=0;" parent="1" source="BuTPipLV7j_fsyDMpBB1-41" target="BuTPipLV7j_fsyDMpBB1-47" edge="1">
          <mxGeometry relative="1" as="geometry" />
        </mxCell>
        <mxCell id="BuTPipLV7j_fsyDMpBB1-116" style="edgeStyle=orthogonalEdgeStyle;rounded=0;orthogonalLoop=1;jettySize=auto;html=1;exitX=1;exitY=0.5;exitDx=0;exitDy=0;entryX=0;entryY=0.5;entryDx=0;entryDy=0;" parent="1" source="BuTPipLV7j_fsyDMpBB1-41" target="BuTPipLV7j_fsyDMpBB1-74" edge="1">
          <mxGeometry relative="1" as="geometry">
            <Array as="points">
              <mxPoint x="429" y="990.5" />
              <mxPoint x="429" y="928.5" />
            </Array>
          </mxGeometry>
        </mxCell>
        <mxCell id="BuTPipLV7j_fsyDMpBB1-41" value="Wait for Start Requests from Robot" style="rounded=1;whiteSpace=wrap;html=1;fillColor=#f5f5f5;fontSize=14;align=center;strokeColor=#666666;fontColor=#333333;" parent="1" vertex="1">
          <mxGeometry x="307.13" y="957.6199999999999" width="110" height="65" as="geometry" />
        </mxCell>
        <mxCell id="BuTPipLV7j_fsyDMpBB1-67" style="edgeStyle=orthogonalEdgeStyle;rounded=0;orthogonalLoop=1;jettySize=auto;html=1;exitX=0.55;exitY=0.95;exitDx=0;exitDy=0;exitPerimeter=0;entryX=0.5;entryY=0;entryDx=0;entryDy=0;dashed=1;" parent="1" target="sfmJpsZofoT2jx0BlZdd-50" edge="1">
          <mxGeometry relative="1" as="geometry">
            <mxPoint x="224" y="1092.5" as="sourcePoint" />
          </mxGeometry>
        </mxCell>
        <mxCell id="BuTPipLV7j_fsyDMpBB1-45" value="Requests" style="ellipse;shape=cloud;whiteSpace=wrap;html=1;" parent="1" vertex="1">
          <mxGeometry x="177.13" y="1068.5" width="96" height="28" as="geometry" />
        </mxCell>
        <mxCell id="BuTPipLV7j_fsyDMpBB1-55" style="edgeStyle=orthogonalEdgeStyle;rounded=0;orthogonalLoop=1;jettySize=auto;html=1;exitX=0.5;exitY=1;exitDx=0;exitDy=0;entryX=0.625;entryY=0.2;entryDx=0;entryDy=0;entryPerimeter=0;dashed=1;" parent="1" source="BuTPipLV7j_fsyDMpBB1-47" target="BuTPipLV7j_fsyDMpBB1-45" edge="1">
          <mxGeometry relative="1" as="geometry">
            <Array as="points">
              <mxPoint x="504" y="1052.5" />
              <mxPoint x="237" y="1052.5" />
            </Array>
          </mxGeometry>
        </mxCell>
        <mxCell id="BuTPipLV7j_fsyDMpBB1-57" style="edgeStyle=orthogonalEdgeStyle;rounded=0;orthogonalLoop=1;jettySize=auto;html=1;exitX=1;exitY=0.5;exitDx=0;exitDy=0;" parent="1" source="BuTPipLV7j_fsyDMpBB1-47" target="BuTPipLV7j_fsyDMpBB1-56" edge="1">
          <mxGeometry relative="1" as="geometry" />
        </mxCell>
        <mxCell id="BuTPipLV7j_fsyDMpBB1-47" value="Send Requests to ATI sensor" style="rounded=1;whiteSpace=wrap;html=1;fillColor=none;fontSize=14;align=center;" parent="1" vertex="1">
          <mxGeometry x="447.75" y="963.8699999999999" width="110" height="52.5" as="geometry" />
        </mxCell>
        <mxCell id="BuTPipLV7j_fsyDMpBB1-71" style="edgeStyle=orthogonalEdgeStyle;rounded=0;orthogonalLoop=1;jettySize=auto;html=1;exitX=1;exitY=0.5;exitDx=0;exitDy=0;entryX=0;entryY=0.25;entryDx=0;entryDy=0;" parent="1" source="BuTPipLV7j_fsyDMpBB1-56" target="BuTPipLV7j_fsyDMpBB1-70" edge="1">
          <mxGeometry relative="1" as="geometry" />
        </mxCell>
        <mxCell id="BuTPipLV7j_fsyDMpBB1-72" style="edgeStyle=orthogonalEdgeStyle;rounded=0;orthogonalLoop=1;jettySize=auto;html=1;exitX=1;exitY=0.5;exitDx=0;exitDy=0;entryX=0;entryY=0.75;entryDx=0;entryDy=0;" parent="1" source="BuTPipLV7j_fsyDMpBB1-56" target="BuTPipLV7j_fsyDMpBB1-70" edge="1">
          <mxGeometry relative="1" as="geometry" />
        </mxCell>
        <mxCell id="BuTPipLV7j_fsyDMpBB1-56" value="Receive Readings from ATI sensor" style="rounded=1;whiteSpace=wrap;html=1;fillColor=#f5f5f5;fontSize=14;align=center;strokeColor=#666666;fontColor=#333333;" parent="1" vertex="1">
          <mxGeometry x="587.13" y="963.8699999999999" width="110" height="52.5" as="geometry" />
        </mxCell>
        <mxCell id="BuTPipLV7j_fsyDMpBB1-60" value="Output Readings" style="rounded=1;whiteSpace=wrap;html=1;fillColor=none;fontSize=14;align=center;" parent="1" vertex="1">
          <mxGeometry x="749" y="958.75" width="110" height="32.5" as="geometry" />
        </mxCell>
        <mxCell id="BuTPipLV7j_fsyDMpBB1-61" value="Visualization" style="rounded=1;whiteSpace=wrap;html=1;fillColor=none;fontSize=14;align=center;" parent="1" vertex="1">
          <mxGeometry x="749" y="1001" width="110" height="32.5" as="geometry" />
        </mxCell>
        <mxCell id="BuTPipLV7j_fsyDMpBB1-82" style="edgeStyle=orthogonalEdgeStyle;rounded=0;orthogonalLoop=1;jettySize=auto;html=1;exitX=1;exitY=0.5;exitDx=0;exitDy=0;entryX=0.5;entryY=0;entryDx=0;entryDy=0;" parent="1" source="BuTPipLV7j_fsyDMpBB1-74" target="BuTPipLV7j_fsyDMpBB1-81" edge="1">
          <mxGeometry relative="1" as="geometry" />
        </mxCell>
        <mxCell id="BuTPipLV7j_fsyDMpBB1-74" value="Wait for Stop Requests from Robot" style="rounded=1;whiteSpace=wrap;html=1;fillColor=#f5f5f5;fontSize=14;align=center;strokeColor=#666666;fontColor=#333333;" parent="1" vertex="1">
          <mxGeometry x="448.75" y="907.5" width="150" height="42.5" as="geometry" />
        </mxCell>
        <mxCell id="BuTPipLV7j_fsyDMpBB1-77" value="&lt;b&gt;&lt;i&gt;ATI Net F/T sensor&lt;/i&gt;&lt;/b&gt;" style="text;html=1;strokeColor=none;fillColor=none;align=left;verticalAlign=middle;whiteSpace=wrap;rounded=0;fontSize=14;" parent="1" vertex="1">
          <mxGeometry x="30" y="1102.5" width="490" height="20" as="geometry" />
        </mxCell>
        <mxCell id="BuTPipLV7j_fsyDMpBB1-102" style="edgeStyle=orthogonalEdgeStyle;rounded=0;orthogonalLoop=1;jettySize=auto;html=1;exitX=0.5;exitY=1;exitDx=0;exitDy=0;entryX=0;entryY=0.5;entryDx=0;entryDy=0;" parent="1" source="BuTPipLV7j_fsyDMpBB1-81" target="BuTPipLV7j_fsyDMpBB1-47" edge="1">
          <mxGeometry relative="1" as="geometry">
            <Array as="points">
              <mxPoint x="950" y="1042.5" />
              <mxPoint x="429" y="1042.5" />
              <mxPoint x="429" y="982.5" />
            </Array>
          </mxGeometry>
        </mxCell>
        <mxCell id="BuTPipLV7j_fsyDMpBB1-108" style="edgeStyle=orthogonalEdgeStyle;rounded=0;orthogonalLoop=1;jettySize=auto;html=1;exitX=1;exitY=0.5;exitDx=0;exitDy=0;entryX=0;entryY=0.5;entryDx=0;entryDy=0;" parent="1" source="BuTPipLV7j_fsyDMpBB1-81" target="BuTPipLV7j_fsyDMpBB1-105" edge="1">
          <mxGeometry relative="1" as="geometry" />
        </mxCell>
        <mxCell id="BuTPipLV7j_fsyDMpBB1-81" value="Receive Stop Request ?" style="rhombus;whiteSpace=wrap;html=1;" parent="1" vertex="1">
          <mxGeometry x="899" y="957.75" width="100" height="74.75" as="geometry" />
        </mxCell>
        <mxCell id="BuTPipLV7j_fsyDMpBB1-85" value="yes" style="text;html=1;strokeColor=none;fillColor=none;align=center;verticalAlign=middle;whiteSpace=wrap;rounded=0;" parent="1" vertex="1">
          <mxGeometry x="714" y="1137.5" width="40" height="20" as="geometry" />
        </mxCell>
        <mxCell id="BuTPipLV7j_fsyDMpBB1-97" style="edgeStyle=orthogonalEdgeStyle;rounded=0;orthogonalLoop=1;jettySize=auto;html=1;exitX=0;exitY=0.5;exitDx=0;exitDy=0;entryX=0.5;entryY=0;entryDx=0;entryDy=0;" parent="1" source="BuTPipLV7j_fsyDMpBB1-25" target="BuTPipLV7j_fsyDMpBB1-25" edge="1">
          <mxGeometry relative="1" as="geometry">
            <Array as="points">
              <mxPoint x="594" y="1159.5" />
              <mxPoint x="594" y="1116.5" />
              <mxPoint x="669" y="1116.5" />
            </Array>
          </mxGeometry>
        </mxCell>
        <mxCell id="BuTPipLV7j_fsyDMpBB1-98" value="no" style="text;html=1;strokeColor=none;fillColor=none;align=center;verticalAlign=middle;whiteSpace=wrap;rounded=0;" parent="1" vertex="1">
          <mxGeometry x="588.13" y="1157.5" width="40" height="20" as="geometry" />
        </mxCell>
        <mxCell id="BuTPipLV7j_fsyDMpBB1-101" style="edgeStyle=orthogonalEdgeStyle;rounded=0;orthogonalLoop=1;jettySize=auto;html=1;exitX=0.625;exitY=0.2;exitDx=0;exitDy=0;exitPerimeter=0;dashed=1;" parent="1" source="BuTPipLV7j_fsyDMpBB1-99" target="BuTPipLV7j_fsyDMpBB1-56" edge="1">
          <mxGeometry relative="1" as="geometry">
            <Array as="points">
              <mxPoint x="578" y="1082.5" />
              <mxPoint x="643" y="1082.5" />
            </Array>
          </mxGeometry>
        </mxCell>
        <mxCell id="BuTPipLV7j_fsyDMpBB1-99" value="Responses" style="ellipse;shape=cloud;whiteSpace=wrap;html=1;" parent="1" vertex="1">
          <mxGeometry x="508.13" y="1068.5" width="111.87" height="28" as="geometry" />
        </mxCell>
        <mxCell id="BuTPipLV7j_fsyDMpBB1-103" value="no" style="text;html=1;strokeColor=none;fillColor=none;align=center;verticalAlign=middle;whiteSpace=wrap;rounded=0;" parent="1" vertex="1">
          <mxGeometry x="900" y="1024.75" width="40" height="20" as="geometry" />
        </mxCell>
        <mxCell id="BuTPipLV7j_fsyDMpBB1-111" style="edgeStyle=orthogonalEdgeStyle;rounded=0;orthogonalLoop=1;jettySize=auto;html=1;exitX=0.5;exitY=1;exitDx=0;exitDy=0;entryX=0.625;entryY=0.2;entryDx=0;entryDy=0;entryPerimeter=0;dashed=1;" parent="1" source="BuTPipLV7j_fsyDMpBB1-105" target="BuTPipLV7j_fsyDMpBB1-45" edge="1">
          <mxGeometry relative="1" as="geometry">
            <Array as="points">
              <mxPoint x="1085" y="1052.5" />
              <mxPoint x="237" y="1052.5" />
            </Array>
          </mxGeometry>
        </mxCell>
        <mxCell id="BuTPipLV7j_fsyDMpBB1-120" style="edgeStyle=orthogonalEdgeStyle;rounded=0;orthogonalLoop=1;jettySize=auto;html=1;exitX=0.5;exitY=0;exitDx=0;exitDy=0;entryX=0.5;entryY=1;entryDx=0;entryDy=0;" parent="1" source="BuTPipLV7j_fsyDMpBB1-105" target="BuTPipLV7j_fsyDMpBB1-119" edge="1">
          <mxGeometry relative="1" as="geometry" />
        </mxCell>
        <mxCell id="BuTPipLV7j_fsyDMpBB1-105" value="Request ATI sensor stop streaming" style="rounded=1;whiteSpace=wrap;html=1;fillColor=none;fontSize=14;align=center;" parent="1" vertex="1">
          <mxGeometry x="1029" y="964.3799999999999" width="110" height="61.5" as="geometry" />
        </mxCell>
        <mxCell id="BuTPipLV7j_fsyDMpBB1-110" value="yes" style="text;html=1;strokeColor=none;fillColor=none;align=center;verticalAlign=middle;whiteSpace=wrap;rounded=0;" parent="1" vertex="1">
          <mxGeometry x="990" y="967.5" width="40" height="20" as="geometry" />
        </mxCell>
        <mxCell id="BuTPipLV7j_fsyDMpBB1-115" style="edgeStyle=orthogonalEdgeStyle;rounded=0;orthogonalLoop=1;jettySize=auto;html=1;exitX=1;exitY=0.5;exitDx=0;exitDy=0;entryX=0;entryY=0.5;entryDx=0;entryDy=0;" parent="1" source="BuTPipLV7j_fsyDMpBB1-114" target="BuTPipLV7j_fsyDMpBB1-14" edge="1">
          <mxGeometry relative="1" as="geometry" />
        </mxCell>
        <mxCell id="BuTPipLV7j_fsyDMpBB1-114" value="start" style="ellipse;whiteSpace=wrap;html=1;fontSize=14;align=center;" parent="1" vertex="1">
          <mxGeometry x="45" y="975.1199999999999" width="85" height="30" as="geometry" />
        </mxCell>
        <mxCell id="BuTPipLV7j_fsyDMpBB1-122" style="edgeStyle=orthogonalEdgeStyle;rounded=0;orthogonalLoop=1;jettySize=auto;html=1;exitX=0;exitY=0.5;exitDx=0;exitDy=0;entryX=0.5;entryY=0;entryDx=0;entryDy=0;" parent="1" source="BuTPipLV7j_fsyDMpBB1-119" target="BuTPipLV7j_fsyDMpBB1-41" edge="1">
          <mxGeometry relative="1" as="geometry">
            <Array as="points">
              <mxPoint x="980" y="893.5" />
              <mxPoint x="362" y="892.5" />
            </Array>
          </mxGeometry>
        </mxCell>
        <mxCell id="BuTPipLV7j_fsyDMpBB1-119" value="Send Response to Robot" style="rounded=1;whiteSpace=wrap;html=1;fillColor=none;fontSize=14;align=center;" parent="1" vertex="1">
          <mxGeometry x="1029" y="862.5" width="110" height="61.5" as="geometry" />
        </mxCell>
      </root>
    </mxGraphModel>
  </diagram>
</mxfile>
